<svg version="1.1" id="Layer_1" xmlns="http://www.w3.org/2000/svg" xmlns:xlink="http://www.w3.org/1999/xlink" x="0px" y="0px"
	 viewBox="0 0 600 450.7" style="enable-background:new 0 0 600 450.7;" xml:space="preserve">
<style type="text/css">
	.st0{fill:#D71920;}
	.st1{fill:#FFFFFF;}
</style>
<g>
	<path class="st0" d="M592.2,275.3c-0.6-6.7-1.4-13.4-2.2-20c-0.1-1.1-0.8-6-0.8-6c-0.8-6.5-1.5-10.5-1.5-10.6
		c-0.3-2-0.6-3.9-0.8-5.3c-0.2-1.4-0.4-2.3-0.4-2.3c-1.5-9.5-3.3-18.4-5.3-26.8c0,0.2,0,0.3,0.1,0.5c0,0,0,0,0,0
		c-1.6-8.3-3.6-16.3-6.2-24c-7.6-25.8-14.9-41.9-14.9-41.9c-10.8-26.7-26.5-48.2-37.2-61c-7-8.5-11.9-13.3-11.9-13.4
		c-0.1-0.1-0.2-0.2-0.3-0.3c-0.1-0.1-0.2-0.2-0.3-0.3c-17-19.3-40.8-32.8-63.8-42.9c-1.6-0.7-3.2-1.3-4.8-2
		c-0.3-0.1-1.2-0.5-1.2-0.5c-10.6-4.3-27.5-9.1-45.7-11.6c-3-0.4-17.5-2.2-22-2.4C367.5,4.1,361,4,354.5,4C339.2,4,324,4.6,324,4.6
		c-66.4,1.9-142.4,17.2-142.4,17.2c-78.1,17.3-113,42.7-113,42.7c-11.4,7.3-22.1,16.2-30.1,24.3c-27.2,27.6-32.8,60.4-32.8,81.9
		c0,6.8,0.6,12.4,1.2,16.4c1.9,12.6,7.2,29.3,14.4,46.1c0,0,15.6,32.6,27,54.9c5.3,10.4,16.8,30.1,22.6,39.9
		c5.9,9.9,11.9,19.9,12.8,20.7c0,0,16.1,23.3,24.9,31.9c0,0,20.9,19.4,36.1,29.4c8,5.4,34.6,19.5,74.5,26.4c0.4,0,11,1.5,23.4,3.1
		c12.3,1.5,26.2,3.1,33.4,3.1c0,0,50.2,2.3,90.7,3h1.2c9.5,0,57.6-0.8,96.2-5.7c84.7-10.6,114.8-46.9,125.1-78.1
		c0.1-0.3,0.6-1.9,0.6-2.1c0-0.2,0.8-3,0.8-3.1c0.2-1,0.4-1.9,0.6-2.9c2.5-9.1,3.5-21.6,3.5-35C594.6,304.3,593.5,288.8,592.2,275.3
		z"/>
	<g>
		<path class="st1" d="M130.1,299.9c-0.3,2.4,0.9,4.3,3.2,4.3h21.4c2.2,0,4-1.9,4.3-4.3l4.7-34.1h13.7c1,23.7,15.2,38.6,42.8,38.6
			c32.6,0,52.7-21.2,57-51.9l2-14.6l5.6,46.3c1.9,15.9,12.7,20.1,23.3,20.1c10.6,0,22.9-4.4,29.2-20.2l39.8-97.6
			c0.3-0.5,0.3-1.1,0.4-1.5c0.2-1.5-0.5-2.7-1.7-3.2l-23.1,0c-1.5,0.5-3,1.9-3.8,4.1l-32.7,89.9c-1.6,4.9-3.4,6.7-5.1,6.7
			c-1.7,0-3.2-0.6-3.5-6.8l-6.2-79.2l-0.9-11.1c-0.3-2.1-1.3-3.4-2.7-3.7l-48.6-0.1l0,0l-11.2,0v0.1c-0.3,0-0.5,0-0.8,0
			c-32.6,0-52.7,22.7-57,53.4l-1,7.1h-12.4l12.9-93.2c0.3-2.4-1.3-4.3-3.5-4.3h-18.9c-2.9,0-4.8,1.7-6.6,3.8l-76.2,88.6
			c-2,2.2-2.9,4.5-3.2,6.8L69,261.5c-0.3,2.3,1.3,4.3,3.6,4.3l62.2,0L130.1,299.9z M205.3,252.5l2.4-17.4c2.4-17.6,11.7-29,26.2-29
			c0.3,0,0.5,0,0.8,0l0,0.1h1.7c12.7,1.3,18,12.3,15.7,28.8l-2.4,17.4c-2.4,17.6-11.7,27.5-26.2,27.5
			C209,279.9,202.9,270.1,205.3,252.5z M101.1,242.4l44.2-51.4l-7.2,51.4H101.1z"/>
		<path class="st1" d="M531.2,205.3c-1.9-13.2-6.1-23.5-6.1-23.5l-5.6,1.8c-5.6,1.5-11.7,4.1-17.7,8.5l1.1-6
			c0.3-2.4-1.3-4.3-3.5-4.3h-18c-2.2,0-4.4,1.9-4.7,4.3l-13.4,95.3h-56.9c-16.7-1.7-19.2-15.4-17.5-27.1l0.1-0.7h67.4
			c2.9,0,4.4-1.9,4.9-5.4l1.6-12c4.4-32-9.9-54.5-41.7-54.5c-31.6,0-52.6,21-57.2,54.5l-2.2,15.9c-5.5,39.9,19.1,50.9,39.3,52.1
			l0,0.1h3.6c9.4,0,16,0.2,22,0h37.5l12.8,0h6.2c2.3,0,4.4-2.2,4.8-4.5l11.9-86.3c8.4-4.3,16.7-7.1,26.5-7.6
			c0.5-0.2,4.9-0.2,4.9-0.2C531.2,205.5,531.2,205.4,531.2,205.3C531.2,205.2,531.2,205.3,531.2,205.3z M392,232.6
			c2.4-17,13-26.4,25.8-26.4c12.9,0,20.4,9.7,18.1,26.4l-0.1,0.9l-43.9,0L392,232.6z"/>
	</g>
</g>
</svg>
